<?xml version="1.0" encoding="UTF-8"?>
<svg id="Capa_1" data-name="Capa 1" xmlns="http://www.w3.org/2000/svg" version="1.1" viewBox="0 0 768 1366">
  <defs>
    <style>
      .cls-1 {
        fill: #ce741b;
      }

      .cls-1, .cls-2, .cls-3, .cls-4, .cls-5 {
        stroke-width: 0px;
      }

      .cls-2 {
        fill: #000;
      }

      .cls-3 {
        fill: #f7931e;
      }

      .cls-4 {
        fill: #333;
      }

      .cls-5 {
        fill: #fff;
      }
    </style>
  </defs>
  <g>
    <g>
      <rect class="cls-3" x="144.08" y="300.53" width="513.79" height="796.38" rx="66.82" ry="66.82"/>
      <g>
        <rect class="cls-3" x="167.68" y="326.38" width="466.59" height="738.38" rx="66.82" ry="66.82"/>
        <path class="cls-5" d="M561.78,1068.18H240.16c-41.86,0-75.91-34.05-75.91-75.91V398.87c0-41.86,34.05-75.91,75.91-75.91h321.62c41.86,0,75.91,34.05,75.91,75.91v593.4c0,41.86-34.05,75.91-75.91,75.91ZM240.16,329.8c-38.08,0-69.06,30.98-69.06,69.06v593.4c0,38.08,30.98,69.06,69.06,69.06h321.62c38.08,0,69.06-30.98,69.06-69.06V398.87c0-38.08-30.98-69.06-69.06-69.06H240.16Z"/>
      </g>
    </g>
    <g>
      <g>
        <path class="cls-5" d="M480.21,478.46h11.2c36.42,0,66,29.57,66,66v173.3h-143.19v-173.3c0-36.42,29.57-66,66-66Z"/>
        <path class="cls-4" d="M560.83,721.18h-150.04v-171.12c0-41.37,33.65-75.02,75.02-75.02s75.02,33.65,75.02,75.02v171.12ZM417.64,714.33h136.34v-164.27c0-37.59-30.58-68.17-68.17-68.17s-68.17,30.58-68.17,68.17v164.27Z"/>
      </g>
      <path class="cls-4" d="M497.03,616.36l18.1-18.1v-3.2c0-27.95-22.66-50.61-50.61-50.61h0c-27.95,0-50.61,22.66-50.61,50.61v122.37h101.23v-82.97l-18.1-18.1Z"/>
    </g>
    <g>
      <g>
        <path class="cls-5" d="M311.8,479.88h11.2c36.42,0,66,29.57,66,66v173.3h-143.19v-173.3c0-36.42,29.57-66,66-66Z"/>
        <path class="cls-4" d="M392.42,722.6h-150.04v-171.12c0-41.37,33.65-75.02,75.02-75.02s75.02,33.65,75.02,75.02v171.12ZM249.23,715.75h136.34v-164.27c0-37.59-30.58-68.17-68.17-68.17s-68.17,30.58-68.17,68.17v164.27Z"/>
      </g>
      <path class="cls-4" d="M328.61,617.79l18.1-18.1v-3.2c0-27.95-22.66-50.61-50.61-50.61h0c-27.95,0-50.61,22.66-50.61,50.61v122.37h101.23v-82.97l-18.1-18.1Z"/>
    </g>
    <g>
      <path class="cls-5" d="M258.73,814.8s257.85,59.94,295.91-60.89c0,0,4.76,123.69-119.89,154.14-124.64,30.45-179.83,0-179.83,0,0,0,47.57-29.5,3.81-93.24Z"/>
      <path class="cls-2" d="M332.3,923.4c-52.21,0-76.7-13.02-78.21-13.85l-2.55-1.41,2.48-1.54c.16-.1,16.12-10.26,20.43-30.9,3.72-17.8-2.05-37.96-17.13-59.92l-2.5-3.64,4.3,1c2.56.6,256.74,58.2,293.89-59.74l2.96-9.41.38,9.86c.05,1.25,3.37,125.44-121.19,155.87-42,10.26-76.08,13.69-102.86,13.69ZM258.3,907.74c12.16,5.26,68.2,24.99,176.05-1.36,101.03-24.68,116.08-112.33,118.24-142.29-19.79,43.93-74.85,67.14-160.17,67.29-.27,0-.54,0-.81,0-58.35,0-113.76-10.77-129.1-14,13.88,21.43,19.02,41.3,15.28,59.08-3.62,17.23-14.53,27.43-19.49,31.28Z"/>
    </g>
    <path class="cls-2" d="M369.57,452.67h-145.57c-2.84,0-5.14-2.3-5.14-5.14s2.3-5.14,5.14-5.14h145.57c2.84,0,5.14,2.3,5.14,5.14s-2.3,5.14-5.14,5.14Z"/>
    <path class="cls-2" d="M556.54,452.67h-145.57c-2.84,0-5.14-2.3-5.14-5.14s2.3-5.14,5.14-5.14h145.57c2.84,0,5.14,2.3,5.14,5.14s-2.3,5.14-5.14,5.14Z"/>
    <path class="cls-2" d="M369.75,875.5c-49.98,0-90.22-11.63-90.69-11.77l.24-.82c.54.16,54.88,15.86,115.71,10.69,35.7-3.04,66.61-12.56,91.88-28.31,31.58-19.68,54.39-49.19,67.81-87.72l.81.28c-13.49,38.73-36.43,68.39-68.18,88.18-25.39,15.82-56.44,25.38-92.28,28.43-8.61.73-17.09,1.05-25.31,1.05Z"/>
  </g>
  <circle class="cls-1" cx="458.41" cy="1001.05" r="6.42"/>
  <circle class="cls-1" cx="379.8" cy="963.47" r="6.42"/>
  <g>
    <circle class="cls-1" cx="370.76" cy="1005.22" r="6.42"/>
    <g>
      <path class="cls-1" d="M396.84,944.08c1.14.13,2.28.26,3.41.39,1.16-.29,2.19.24,3.27.49,5.66,2.13,9.52,6.31,12.6,11.38.12.21.24.42.36.63,1.36,2.29,2.38,4.74,3.26,7.25.43,1.19.77,2.42,1.15,3.63.27,1.01.46,2.05.72,3.06.3,1.13.29,1.13,1.4.6.85-.43,1.75-.75,2.58-1.2,1.41-.55,2.86-.94,4.31-1.35,1.36-.39,2.77-.45,4.14-.73,1.26-.17,2.53-.13,3.8-.05.51.18,1.04.17,1.57.19,1.37.24,2.74.5,4.05.98,1.28.44,2.56.9,3.71,1.65.19.12.38.24.58.35,1.05.61,2.04,1.29,2.97,2.07.64.45,1.14,1.04,1.71,1.56.77.79,1.61,1.53,2.19,2.48.35.58.76,1.11,1.11,1.69.49.96,1,1.91,1.46,2.89,1.21,3.07,1.88,6.27,2.1,9.56,0,.47.03.95-.2,1.39-.73.5-1.62-.06-2.35.38-.64.13-1.26.34-1.82.69-.78.61-1.4.39-2.1-.24-1.77-1.57-3.57-3.1-5.79-4.02-1.88-.78-3.78-1.21-5.81-.85-1.67.24-3.12.98-4.42,2.03-.89.71-1.82,1.39-2.43,2.39-.29.39-.66.72-.91,1.14-.56.75-1.1,1.51-1.49,2.36-.74,1.1-1.17,2.36-1.81,3.51-.17.27-.41.46-.7.57-1.18.37-2.39.61-3.56.99-1.49.39-1.59.35-2.17-.99-.31-.94-.77-1.82-1.15-2.73-.21-.52-.53-.97-.82-1.45-.66-1.21-1.5-2.3-2.41-3.33-.74-.71-1.13-.11-1.5.44-1.53,2.26-3.06,4.53-4.55,6.82-.42.37-.52,1.34-1.43.77-.19-.22-.32-.48-.45-.74-.61-1.22-1.22-2.43-1.85-3.64-.52-1.17-1.29-2.19-1.9-3.3-.41-.75-.78-.64-1.19-.02-1.8,2.29-3.65,4.53-5.11,7.08-.13.2-.27.39-.5.48-.26.02-.45-.11-.62-.29-.69-1.21-1.53-2.32-2.08-3.61-.32-.81-.64-1.62-.92-2.45-.18-.73-.57-.66-1.03-.27-2.31,1.93-4.61,3.9-6.09,6.59-.49.9-1,1.03-1.81.63-.87-.42-1.77-.78-2.7-.97-1.18-.23-1.76-.94-2.08-2.05-.51-1.83-1.27-3.57-2.2-5.23-.58-1.01-1.23-1.96-2.1-2.73-.27-.28-.54-.55-.87-.77-1.27-.71-2.57-1.24-4.05-.84-2.59.54-4.39,1.97-5.08,4.64-.34,1.1-.2,2.27-.46,3.39-.2.36-.59.43-.91.6-1.03.45-1.97,1.01-2.62,1.98-.18.26-.4.49-.73.58-1.05-.48-1.63-1.47-2.35-2.29-1.13-1.3-1.97-2.8-2.73-4.34-.46-.96-.72-1.99-1.01-3.02-.08-.98-.44-1.94-.27-2.94.21-1.53.42-3.05,1.05-4.48,2.13-4.18,5.09-7.53,9.3-9.67,1-.54,2.09-.83,3.15-1.23,2.97-.77,5.96-1.31,9.05-1.05.58.22,1.19.13,1.79.16,2.41.32,4.8.75,7.13,1.45,1.09.4,2.23.68,3.31,1.12,1.37.55,2.74,1.09,4.09,1.69.82.36.89-.05.82-.69-.09-1.05.12-2.11-.18-3.14-.17-2.55-.58-5.05-1.27-7.51-.31-1.34-.97-2.53-1.65-3.7-.44-.58-.96-1.08-1.54-1.52-1.22-.8-2.53-.73-3.86-.38-.42.13-.83.3-1.23.48q-1.42.64-2.32-.64c-.39-.62-.92-1.11-1.48-1.56-.72-.48-1.5-.79-2.35-.92-.16-.02.04,0-.11-.03-1.82-.25-1.83-.27-1.28-2.06.8-1.89,1.64-3.75,2.99-5.34,1.63-1.92,3.67-3.19,5.96-4.12,1.56-.62,3.22-.68,4.84-.97.84-.09,1.7-.31,2.48.26Z"/>
      <path class="cls-1" d="M410.21,1000.71c.45.94.9,1.88,1.35,2.83.22.46.44.93.72,1.54.8-1.26,1.52-2.39,2.24-3.52.33-.5.66-.99,1-1.49.42-1.12.94-2.17,1.94-2.9.37-.49.74-.98,1.11-1.47.55.48,1.11.96,1.66,1.44,1.48,2.09,2.64,4.35,3.28,6.85.12.49.31.43.66.24.72-.4,1.47-.75,2.21-1.13.9-.23,1.79-.47,2.69-.7,1.43-.12,2.85-.24,4.28-.35,1.05-.6,2.2-.26,3.3-.34,1.35.26,1.47.55.62,1.56-1.33,1.57-2.32,3.37-3.34,5.15-.2.28-.36.58-.52.89-.48.75-.87,1.56-1.23,2.38-.54.87-.82,1.9-1.65,2.57-14.73.15-29.46.3-44.19.48-.9.01-1.35-.02-1.27-1.16.06-.99-.27-1.99-.71-2.91-.77-.76-.92-1.86-1.45-2.76-.59-1.01-1.01-2.11-1.7-3.07-.38-.75-.86-1.44-1.27-2.16-.56-.97-.24-1.51.88-1.53.75,0,1.48.23,2.22.3,1,.32,2.12.35,2.95,1.13,1.3.57,2.6,1.15,3.91,1.72.13.06.32.33.44-.03.14-1.21.64-2.22,1.63-2.96.64-.74,1.28-1.47,1.92-2.21.32-.67.75-1.23,1.5-1.43.32-.22.64-.45,1.03-.73.43,1.54.98,3.01,1.89,4.31.58.98,1.2,1.91,2.03,2.69.2.29.33.87.76.17.65-1.04,1.31-2.08,1.96-3.11,1.14-1.47,2.33-2.91,3.39-4.44.55-.8.89-.59,1.33,0,.19.31.39.61.58.92.62,1.07,1.23,2.15,1.85,3.22Z"/>
    </g>
  </g>
</svg>