<?xml version="1.0" encoding="UTF-8"?>
<svg id="Capa_2" data-name="Capa 2" xmlns="http://www.w3.org/2000/svg" xmlns:xlink="http://www.w3.org/1999/xlink" viewBox="0 0 318.71 138.8">
  <defs>
    <style>
      .cls-1 {
        letter-spacing: -.08em;
      }

      .cls-2 {
        font-family: MyriadPro-Regular, 'Myriad Pro';
        font-size: 46.72px;
      }

      .cls-2, .cls-3, .cls-4 {
        fill: #fff;
      }

      .cls-5 {
        letter-spacing: -.04em;
      }

      .cls-6 {
        clip-path: url(#clippath);
      }

      .cls-7 {
        letter-spacing: 0em;
      }

      .cls-4 {
        stroke-width: 0px;
      }

      .cls-8 {
        letter-spacing: -.01em;
      }
    </style>
    <clipPath id="clippath">
      <path class="cls-4" d="M0,52.84c.4,0,.62,0,.85,0,17.14,0,34.27,0,51.41,0,.88,0,.87,0,1.15-.89,1.72-5.53,3.44-11.07,5.15-16.6,3.59-11.6,7.17-23.2,10.76-34.8.06-.18.06-.4.26-.56,0,6.34,0,12.63,0,18.93,0,.37-.07.72-.18,1.07-3.95,12.78-7.91,25.57-11.85,38.35-.16.5-.37.62-.84.62-12.67-.01-25.34,0-38.01,0-.22,0-.44,0-.84,0,.31.26.48.41.66.55,6.43,4.91,12.85,9.82,19.28,14.73,3.81,2.91,7.62,5.83,11.44,8.73.33.25.42.45.28.88-4.61,13.97-9.21,27.95-13.81,41.93-.83,2.53-1.66,5.06-2.48,7.59-.13.4-.33.7-.66.95-1.82,1.36-3.61,2.75-5.42,4.13-.14.11-.28.2-.49.34.06-.59.27-1.07.42-1.55,4.6-14.91,9.21-29.81,13.81-44.71.65-2.09,1.28-4.19,1.95-6.27.13-.39.07-.59-.26-.84-9.96-7.59-19.92-15.19-29.88-22.8-4.09-3.12-8.17-6.26-12.25-9.39-.11-.08-.21-.17-.45-.38Z"/>
    </clipPath>
  </defs>
  <g id="Capa_1-2" data-name="Capa 1">
    <g>
      <text class="cls-2" transform="translate(51.82 95.67)"><tspan x="0" y="0">INJU</tspan><tspan class="cls-8" x="89.41" y="0">R</tspan><tspan x="114.03" y="0">Y</tspan><tspan class="cls-5" x="139.3" y="0"> </tspan><tspan x="147.29" y="0">TRE</tspan><tspan class="cls-1" x="218.63" y="0">A</tspan><tspan class="cls-7" x="243.62" y="0">T</tspan></text>
      <g>
        <path class="cls-3" d="M0,52.84c.4,0,.62,0,.85,0,17.14,0,34.27,0,51.41,0,.88,0,.87,0,1.15-.89,1.72-5.53,3.44-11.07,5.15-16.6,3.59-11.6,7.17-23.2,10.76-34.8.06-.18.06-.4.26-.56,0,6.34,0,12.63,0,18.93,0,.37-.07.72-.18,1.07-3.95,12.78-7.91,25.57-11.85,38.35-.16.5-.37.62-.84.62-12.67-.01-25.34,0-38.01,0-.22,0-.44,0-.84,0,.31.26.48.41.66.55,6.43,4.91,12.85,9.82,19.28,14.73,3.81,2.91,7.62,5.83,11.44,8.73.33.25.42.45.28.88-4.61,13.97-9.21,27.95-13.81,41.93-.83,2.53-1.66,5.06-2.48,7.59-.13.4-.33.7-.66.95-1.82,1.36-3.61,2.75-5.42,4.13-.14.11-.28.2-.49.34.06-.59.27-1.07.42-1.55,4.6-14.91,9.21-29.81,13.81-44.71.65-2.09,1.28-4.19,1.95-6.27.13-.39.07-.59-.26-.84-9.96-7.59-19.92-15.19-29.88-22.8-4.09-3.12-8.17-6.26-12.25-9.39-.11-.08-.21-.17-.45-.38Z"/>
        <g class="cls-6">
          <rect class="cls-4" x="0" width="1.2" height="138.8"/>
          <rect class="cls-4" x="1.2" width="1.2" height="138.8"/>
          <rect class="cls-4" x="2.4" width="1.2" height="138.8"/>
          <rect class="cls-4" x="3.6" width="1.2" height="138.8"/>
          <rect class="cls-4" x="4.8" width="1.2" height="138.8"/>
          <rect class="cls-4" x="6" width="1.2" height="138.8"/>
          <rect class="cls-4" x="7.2" width="1.2" height="138.8"/>
          <rect class="cls-4" x="8.4" width="1.2" height="138.8"/>
          <rect class="cls-4" x="9.6" width="1.2" height="138.8"/>
          <rect class="cls-4" x="10.8" width="1.2" height="138.8"/>
          <rect class="cls-4" x="12" width="1.2" height="138.8"/>
          <rect class="cls-4" x="13.2" width="1.2" height="138.8"/>
          <rect class="cls-4" x="14.4" width="1.2" height="138.8"/>
          <rect class="cls-4" x="15.6" width="1.2" height="138.8"/>
          <rect class="cls-4" x="16.79" width="1.2" height="138.8"/>
          <rect class="cls-4" x="17.99" width="1.2" height="138.8"/>
          <rect class="cls-4" x="19.19" width="1.2" height="138.8"/>
          <rect class="cls-4" x="20.39" width="1.2" height="138.8"/>
          <rect class="cls-4" x="21.59" width="1.2" height="138.8"/>
          <rect class="cls-4" x="22.79" width="1.2" height="138.8"/>
          <rect class="cls-4" x="23.99" width="1.2" height="138.8"/>
          <rect class="cls-4" x="25.19" width="1.2" height="138.8"/>
          <rect class="cls-4" x="26.39" width="1.2" height="138.8"/>
          <rect class="cls-4" x="27.59" width="1.2" height="138.8"/>
          <rect class="cls-4" x="28.79" width="1.2" height="138.8"/>
          <rect class="cls-4" x="29.99" width="1.2" height="138.8"/>
          <rect class="cls-4" x="31.19" width="1.2" height="138.8"/>
          <rect class="cls-4" x="32.39" width="1.2" height="138.8"/>
          <rect class="cls-4" x="33.59" width="1.2" height="138.8"/>
          <rect class="cls-4" x="34.79" width="1.2" height="138.8"/>
          <rect class="cls-4" x="35.99" width="1.2" height="138.8"/>
          <rect class="cls-4" x="37.19" width="1.2" height="138.8"/>
          <rect class="cls-4" x="38.39" width="1.2" height="138.8"/>
          <rect class="cls-4" x="39.59" width="1.2" height="138.8"/>
          <rect class="cls-4" x="40.79" width="1.2" height="138.8"/>
          <rect class="cls-4" x="41.99" width="1.2" height="138.8"/>
          <rect class="cls-4" x="43.19" width="1.2" height="138.8"/>
          <rect class="cls-4" x="44.39" width="1.2" height="138.8"/>
          <rect class="cls-4" x="45.59" width="1.2" height="138.8"/>
          <rect class="cls-4" x="46.79" width="1.2" height="138.8"/>
          <rect class="cls-4" x="47.98" width="1.2" height="138.8"/>
          <rect class="cls-4" x="49.18" width="1.2" height="138.8"/>
          <rect class="cls-4" x="50.38" width="1.2" height="138.8"/>
          <rect class="cls-4" x="51.58" width="1.2" height="138.8"/>
          <rect class="cls-4" x="52.78" width="1.2" height="138.8"/>
          <rect class="cls-4" x="53.98" width="1.2" height="138.8"/>
          <rect class="cls-4" x="55.18" width="1.2" height="138.8"/>
          <rect class="cls-4" x="56.38" width="1.2" height="138.8"/>
          <rect class="cls-4" x="57.58" width="1.2" height="138.8"/>
          <rect class="cls-4" x="58.78" width="1.2" height="138.8"/>
          <rect class="cls-4" x="59.98" width="1.2" height="138.8"/>
          <rect class="cls-4" x="61.18" width="1.2" height="138.8"/>
          <rect class="cls-4" x="62.38" width="1.2" height="138.8"/>
          <rect class="cls-4" x="63.58" width="1.2" height="138.8"/>
          <rect class="cls-4" x="64.78" width="1.2" height="138.8"/>
          <rect class="cls-4" x="65.98" width="1.2" height="138.8"/>
          <rect class="cls-4" x="67.18" width="1.2" height="138.8"/>
          <rect class="cls-4" x="68.38" width="1.2" height="138.8"/>
          <rect class="cls-4" x="69.58" width="0" height="138.8"/>
        </g>
      </g>
    </g>
  </g>
</svg>