<?xml version="1.0" encoding="UTF-8"?>
<svg id="Capa_2" data-name="Capa 2" xmlns="http://www.w3.org/2000/svg" xmlns:xlink="http://www.w3.org/1999/xlink" viewBox="0 0 246.07 490.87">
  <defs>
    <style>
      .cls-1 {
        fill: #41b291;
      }

      .cls-1, .cls-2, .cls-3, .cls-4, .cls-5, .cls-6, .cls-7, .cls-8, .cls-9, .cls-10, .cls-11, .cls-12, .cls-13, .cls-14, .cls-15, .cls-16, .cls-17, .cls-18, .cls-19, .cls-20, .cls-21, .cls-22, .cls-23, .cls-24, .cls-25, .cls-26, .cls-27, .cls-28, .cls-29, .cls-30, .cls-31, .cls-32, .cls-33, .cls-34, .cls-35, .cls-36, .cls-37, .cls-38, .cls-39, .cls-40, .cls-41, .cls-42, .cls-43, .cls-44, .cls-45, .cls-46, .cls-47, .cls-48, .cls-49, .cls-50, .cls-51, .cls-52, .cls-53, .cls-54, .cls-55, .cls-56, .cls-57, .cls-58, .cls-59 {
        stroke-width: 0px;
      }

      .cls-2 {
        fill: #1a9faa;
      }

      .cls-3 {
        fill: #159cae;
      }

      .cls-4 {
        fill: #32aa9b;
      }

      .cls-5 {
        fill: #20a2a6;
      }

      .cls-6 {
        fill: #28a6a1;
      }

      .cls-7 {
        fill: #3caf94;
      }

      .cls-8 {
        fill: #43b390;
      }

      .cls-9 {
        fill: #3aae96;
      }

      .cls-10 {
        fill: #1da0a8;
      }

      .cls-11 {
        fill: #3fb192;
      }

      .cls-12 {
        fill: #2da89e;
      }

      .cls-13 {
        fill: #46b48e;
      }

      .cls-14 {
        fill: #49b68c;
      }

      .cls-15 {
        fill: #47b58d;
      }

      .cls-16 {
        fill: #1ea1a8;
      }

      .cls-17 {
        fill: #27a5a2;
      }

      .cls-18 {
        fill: #3db094;
      }

      .cls-19 {
        fill: none;
      }

      .cls-20 {
        fill: #3baf95;
      }

      .cls-21 {
        fill: #199eab;
      }

      .cls-22 {
        fill: #21a2a6;
      }

      .cls-23 {
        fill: #4db889;
      }

      .cls-24 {
        fill: #38ad97;
      }

      .cls-25 {
        fill: #39ae96;
      }

      .cls-26 {
        fill: #149cae;
      }

      .cls-27 {
        fill: #2fa99c;
      }

      .cls-28 {
        fill: #4cb78a;
      }

      .cls-29 {
        fill: #45b48e;
      }

      .cls-30 {
        fill: #4bb78a;
      }

      .cls-31 {
        fill: #2ba79f;
      }

      .cls-32 {
        fill: #4ab68b;
      }

      .cls-33 {
        fill: #48b58c;
      }

      .cls-34 {
        fill: #34ab9a;
      }

      .cls-35 {
        fill: #35ac99;
      }

      .cls-36 {
        fill: #189eac;
      }

      .cls-37 {
        fill: #1b9faa;
      }

      .cls-38 {
        fill: #22a3a5;
      }

      .cls-60 {
        clip-path: url(#clippath);
      }

      .cls-39 {
        fill: #37ad98;
      }

      .cls-40 {
        fill: #23a3a4;
      }

      .cls-41 {
        fill: #2ca89e;
      }

      .cls-42 {
        fill: #29a6a0;
      }

      .cls-43 {
        fill: #1ca0a9;
      }

      .cls-44 {
        fill: #2ea99d;
      }

      .cls-45 {
        fill: #169dad;
      }

      .cls-46 {
        fill: #179dac;
      }

      .cls-47 {
        fill: #2aa7a0;
      }

      .cls-48 {
        fill: #42b290;
      }

      .cls-49 {
        fill: #1fa1a7;
      }

      .cls-50 {
        fill: #25a4a3;
      }

      .cls-51 {
        fill: #139baf;
      }

      .cls-52 {
        fill: #3eb093;
      }

      .cls-53 {
        fill: #33ab9a;
      }

      .cls-54 {
        fill: #36ac98;
      }

      .cls-55 {
        fill: #31aa9c;
      }

      .cls-56 {
        fill: #44b38f;
      }

      .cls-57 {
        fill: #24a4a4;
      }

      .cls-58 {
        fill: #40b192;
      }

      .cls-59 {
        fill: #26a5a2;
      }
    </style>
    <clipPath id="clippath">
      <path class="cls-19" d="M0,186.89c1.41,0,2.2,0,2.99,0,60.6,0,121.21.02,181.81.03,3.1,0,3.09,0,4.06-3.15,6.07-19.57,12.16-39.14,18.22-58.71,12.69-41.03,25.36-82.06,38.05-123.08.2-.63.22-1.4.93-1.97,0,22.42,0,44.68,0,66.94,0,1.29-.26,2.54-.65,3.78-13.99,45.21-27.98,90.42-41.9,135.65-.55,1.78-1.32,2.19-2.98,2.19-44.81-.04-89.61-.02-134.42-.02-.78,0-1.57,0-2.99,0,1.11.93,1.7,1.46,2.33,1.94,22.73,17.37,45.46,34.73,68.19,52.09,13.49,10.3,26.96,20.62,40.47,30.89,1.15.88,1.5,1.58,1,3.12-16.31,49.42-32.57,98.86-48.83,148.31-2.94,8.95-5.87,17.9-8.77,26.86-.45,1.4-1.15,2.46-2.33,3.35-6.42,4.82-12.78,9.72-19.17,14.59-.49.37-1.01.7-1.72,1.2.2-2.1.94-3.78,1.47-5.5,16.28-52.72,32.57-105.43,48.85-158.14,2.28-7.39,4.53-14.8,6.89-22.17.44-1.39.24-2.1-.91-2.98-35.24-26.85-70.45-53.73-105.66-80.62-14.46-11.05-28.89-22.14-43.34-33.22-.38-.29-.73-.62-1.6-1.36Z"/>
    </clipPath>
  </defs>
  <g id="Capa_1-2" data-name="Capa 1">
    <g class="cls-60">
      <rect class="cls-51" x="0" y="0" width="4.24" height="490.87"/>
      <rect class="cls-26" x="4.24" y="0" width="4.24" height="490.87"/>
      <rect class="cls-3" x="8.49" y="0" width="4.24" height="490.87"/>
      <rect class="cls-45" x="12.73" y="0" width="4.24" height="490.87"/>
      <rect class="cls-46" x="16.97" y="0" width="4.24" height="490.87"/>
      <rect class="cls-36" x="21.21" y="0" width="4.24" height="490.87"/>
      <rect class="cls-21" x="25.46" y="0" width="4.24" height="490.87"/>
      <rect class="cls-2" x="29.7" y="0" width="4.24" height="490.87"/>
      <rect class="cls-37" x="33.94" y="0" width="4.24" height="490.87"/>
      <rect class="cls-43" x="38.18" y="0" width="4.24" height="490.87"/>
      <rect class="cls-10" x="42.43" y="0" width="4.24" height="490.87"/>
      <rect class="cls-16" x="46.67" y="0" width="4.24" height="490.87"/>
      <rect class="cls-49" x="50.91" y="0" width="4.24" height="490.87"/>
      <rect class="cls-5" x="55.15" y="0" width="4.24" height="490.87"/>
      <rect class="cls-22" x="59.4" y="0" width="4.24" height="490.87"/>
      <rect class="cls-38" x="63.64" y="0" width="4.24" height="490.87"/>
      <rect class="cls-40" x="67.88" y="0" width="4.24" height="490.87"/>
      <rect class="cls-57" x="72.12" y="0" width="4.24" height="490.87"/>
      <rect class="cls-50" x="76.37" y="0" width="4.24" height="490.87"/>
      <rect class="cls-59" x="80.61" y="0" width="4.24" height="490.87"/>
      <rect class="cls-17" x="84.85" y="0" width="4.24" height="490.87"/>
      <rect class="cls-6" x="89.09" y="0" width="4.24" height="490.87"/>
      <rect class="cls-42" x="93.34" y="0" width="4.24" height="490.87"/>
      <rect class="cls-47" x="97.58" y="0" width="4.24" height="490.87"/>
      <rect class="cls-31" x="101.82" y="0" width="4.24" height="490.87"/>
      <rect class="cls-41" x="106.07" y="0" width="4.24" height="490.87"/>
      <rect class="cls-12" x="110.31" y="0" width="4.24" height="490.87"/>
      <rect class="cls-44" x="114.55" y="0" width="4.24" height="490.87"/>
      <rect class="cls-27" x="118.79" y="0" width="4.24" height="490.87"/>
      <rect class="cls-55" x="123.04" y="0" width="4.24" height="490.87"/>
      <rect class="cls-4" x="127.28" y="0" width="4.24" height="490.87"/>
      <rect class="cls-53" x="131.52" y="0" width="4.24" height="490.87"/>
      <rect class="cls-34" x="135.76" y="0" width="4.24" height="490.87"/>
      <rect class="cls-35" x="140.01" y="0" width="4.24" height="490.87"/>
      <rect class="cls-54" x="144.25" y="0" width="4.24" height="490.87"/>
      <rect class="cls-39" x="148.49" y="0" width="4.24" height="490.87"/>
      <rect class="cls-24" x="152.73" y="0" width="4.24" height="490.87"/>
      <rect class="cls-25" x="156.98" y="0" width="4.24" height="490.87"/>
      <rect class="cls-9" x="161.22" y="0" width="4.24" height="490.87"/>
      <rect class="cls-20" x="165.46" y="0" width="4.24" height="490.87"/>
      <rect class="cls-7" x="169.7" y="0" width="4.24" height="490.87"/>
      <rect class="cls-18" x="173.95" y="0" width="4.24" height="490.87"/>
      <rect class="cls-52" x="178.19" y="0" width="4.24" height="490.87"/>
      <rect class="cls-11" x="182.43" y="0" width="4.24" height="490.87"/>
      <rect class="cls-58" x="186.67" y="0" width="4.24" height="490.87"/>
      <rect class="cls-1" x="190.92" y="0" width="4.24" height="490.87"/>
      <rect class="cls-48" x="195.16" y="0" width="4.24" height="490.87"/>
      <rect class="cls-8" x="199.4" y="0" width="4.24" height="490.87"/>
      <rect class="cls-56" x="203.65" y="0" width="4.24" height="490.87"/>
      <rect class="cls-29" x="207.89" y="0" width="4.24" height="490.87"/>
      <rect class="cls-13" x="212.13" y="0" width="4.24" height="490.87"/>
      <rect class="cls-15" x="216.37" y="0" width="4.24" height="490.87"/>
      <rect class="cls-33" x="220.62" y="0" width="4.24" height="490.87"/>
      <rect class="cls-14" x="224.86" y="0" width="4.24" height="490.87"/>
      <rect class="cls-32" x="229.1" y="0" width="4.24" height="490.87"/>
      <rect class="cls-30" x="233.34" y="0" width="4.24" height="490.87"/>
      <rect class="cls-28" x="237.59" y="0" width="4.24" height="490.87"/>
      <rect class="cls-23" x="241.83" y="0" width="4.24" height="490.87"/>
      <rect class="cls-23" x="246.07" y="0" width="0" height="490.87"/>
    </g>
  </g>
</svg>